<svg xmlns="http://www.w3.org/2000/svg" viewBox="0 0 800 600" role="img" aria-label="Proper form for Planks">
  <rect width="800" height="600" fill="#18181b"/>
  <text x="400" y="42" text-anchor="middle" fill="#a1a1aa" font-family="system-ui,sans-serif" font-size="22" font-weight="600">Planks — proper form</text>
  <defs>
    <marker id="arr" markerWidth="10" markerHeight="10" refX="8" refY="3" orient="auto">
      <path d="M0,0 L8,3 L0,6 Z" fill="#f97316"/>
    </marker>
  </defs>

  <line x1="50" y1="490" x2="750" y2="490" stroke="#3f3f46" stroke-width="3"/>
  <line x1="130" y1="292" x2="700" y2="318" stroke="#f97316" stroke-width="2" stroke-dasharray="10 7" opacity="0.5"/>
  <path fill="#d4d4d8" stroke="#a1a1aa" stroke-width="1.8" stroke-linejoin="round" stroke-linecap="round" d="
M148 255
C130 250 115 265 118 285
C121 305 138 318 156 312
C174 306 182 288 176 270
C172 258 160 252 148 255Z
M170 275
C200 260 240 258 285 265
C340 275 410 285 480 295
C540 305 595 318 640 338
C665 350 685 368 695 390
C702 405 690 418 672 412
C650 404 630 388 612 375
C585 355 550 342 515 335
C475 328 435 325 395 322
C360 320 330 325 315 350
C300 385 292 430 290 465
C288 480 300 488 318 485
C345 480 380 475 410 470
C428 467 435 452 428 438
C415 410 412 380 425 358
C442 330 485 325 530 330
C575 335 615 350 645 375
C660 388 670 405 668 418
C666 430 650 432 638 422
C610 400 570 382 525 372
C480 362 430 360 385 365
C350 370 325 395 310 430
C300 455 290 478 270 482
C245 488 220 475 210 450
C198 415 195 370 205 335
C212 310 220 290 230 280
C205 275 185 272 170 275Z
"/>
  <path fill="none" stroke="#a1a1aa" stroke-width="1.15" opacity="0.5" d="M240 275 C320 285 420 295 520 310"/>
  <path fill="none" stroke="#a1a1aa" stroke-width="1.15" opacity="0.5" d="M230 295 L290 465"/>
  <circle cx="230" cy="290" r="7" fill="#f97316"/>
  <line x1="230" y1="290" x2="290" y2="465" stroke="#f97316" stroke-width="2" stroke-dasharray="5 4"/>
  <text x="230" y="215" text-anchor="middle" fill="#f97316" font-family="system-ui,sans-serif" font-size="14" font-weight="600">elbow under shoulder</text>
  <line x1="230" y1="222" x2="230" y2="280" stroke="#f97316" stroke-width="2"/>
  <circle cx="430" cy="295" r="7" fill="#f97316"/>
  <text x="430" y="245" text-anchor="middle" fill="#f97316" font-family="system-ui,sans-serif" font-size="14" font-weight="600">flat back · brace core</text>
  <text x="130" y="210" text-anchor="middle" fill="#f97316" font-family="system-ui,sans-serif" font-size="13" font-weight="600">neutral neck</text>
  <line x1="130" y1="218" x2="148" y2="248" stroke="#f97316" stroke-width="2"/>
  <text x="680" y="445" text-anchor="middle" fill="#f97316" font-family="system-ui,sans-serif" font-size="13" font-weight="600">heels push back</text>
  <path d="M680 432 L680 385" stroke="#f97316" stroke-width="2" fill="none" marker-end="url(#arr)"/>

</svg>
